<mxfile host="app.diagrams.net" agent="Mozilla/5.0 (Windows NT 10.0; Win64; x64) AppleWebKit/537.36 (KHTML, like Gecko) Chrome/130.0.0.0 Safari/537.36" version="24.8.3">
  <diagram id="C5RBs43oDa-KdzZeNtuy" name="Page-1">
    <mxGraphModel dx="1434" dy="746" grid="1" gridSize="10" guides="1" tooltips="1" connect="1" arrows="1" fold="1" page="1" pageScale="1" pageWidth="827" pageHeight="1169" math="0" shadow="0">
      <root>
        <mxCell id="WIyWlLk6GJQsqaUBKTNV-0" />
        <mxCell id="WIyWlLk6GJQsqaUBKTNV-1" parent="WIyWlLk6GJQsqaUBKTNV-0" />
        <mxCell id="EHlQKIp9Hyzh21xTAEDl-6" value="" style="rounded=1;whiteSpace=wrap;html=1;" vertex="1" parent="WIyWlLk6GJQsqaUBKTNV-1">
          <mxGeometry x="1220" y="162" width="920" height="670" as="geometry" />
        </mxCell>
        <mxCell id="EHlQKIp9Hyzh21xTAEDl-9" style="edgeStyle=orthogonalEdgeStyle;rounded=0;orthogonalLoop=1;jettySize=auto;html=1;exitX=0.5;exitY=1;exitDx=0;exitDy=0;" edge="1" parent="WIyWlLk6GJQsqaUBKTNV-1" source="03JShoHPY47ac9KwAqlW-4" target="EHlQKIp9Hyzh21xTAEDl-8">
          <mxGeometry relative="1" as="geometry" />
        </mxCell>
        <mxCell id="03JShoHPY47ac9KwAqlW-4" value="Inicio" style="ellipse;whiteSpace=wrap;html=1;" parent="WIyWlLk6GJQsqaUBKTNV-1" vertex="1">
          <mxGeometry x="240" y="60" width="120" height="80" as="geometry" />
        </mxCell>
        <mxCell id="03JShoHPY47ac9KwAqlW-15" style="edgeStyle=orthogonalEdgeStyle;rounded=0;orthogonalLoop=1;jettySize=auto;html=1;exitX=0.5;exitY=1;exitDx=0;exitDy=0;entryX=0.5;entryY=0;entryDx=0;entryDy=0;" parent="WIyWlLk6GJQsqaUBKTNV-1" source="03JShoHPY47ac9KwAqlW-6" target="03JShoHPY47ac9KwAqlW-7" edge="1">
          <mxGeometry relative="1" as="geometry" />
        </mxCell>
        <mxCell id="03JShoHPY47ac9KwAqlW-6" value="Pedido produtor" style="rounded=0;whiteSpace=wrap;html=1;" parent="WIyWlLk6GJQsqaUBKTNV-1" vertex="1">
          <mxGeometry x="240" y="290" width="120" height="60" as="geometry" />
        </mxCell>
        <mxCell id="03JShoHPY47ac9KwAqlW-10" style="edgeStyle=orthogonalEdgeStyle;rounded=0;orthogonalLoop=1;jettySize=auto;html=1;entryX=0.5;entryY=0;entryDx=0;entryDy=0;" parent="WIyWlLk6GJQsqaUBKTNV-1" source="03JShoHPY47ac9KwAqlW-7" edge="1">
          <mxGeometry relative="1" as="geometry">
            <mxPoint x="460" y="550" as="targetPoint" />
          </mxGeometry>
        </mxCell>
        <mxCell id="03JShoHPY47ac9KwAqlW-13" value="Não" style="edgeLabel;html=1;align=center;verticalAlign=middle;resizable=0;points=[];" parent="03JShoHPY47ac9KwAqlW-10" vertex="1" connectable="0">
          <mxGeometry x="-0.2087" y="-1" relative="1" as="geometry">
            <mxPoint x="-21" y="-11" as="offset" />
          </mxGeometry>
        </mxCell>
        <mxCell id="03JShoHPY47ac9KwAqlW-11" style="edgeStyle=orthogonalEdgeStyle;rounded=0;orthogonalLoop=1;jettySize=auto;html=1;exitX=0;exitY=0.5;exitDx=0;exitDy=0;entryX=0.5;entryY=0;entryDx=0;entryDy=0;" parent="WIyWlLk6GJQsqaUBKTNV-1" source="03JShoHPY47ac9KwAqlW-7" edge="1">
          <mxGeometry relative="1" as="geometry">
            <mxPoint x="150" y="550" as="targetPoint" />
          </mxGeometry>
        </mxCell>
        <mxCell id="03JShoHPY47ac9KwAqlW-12" value="Sim" style="edgeLabel;html=1;align=center;verticalAlign=middle;resizable=0;points=[];" parent="03JShoHPY47ac9KwAqlW-11" vertex="1" connectable="0">
          <mxGeometry x="-0.1364" relative="1" as="geometry">
            <mxPoint x="35" y="-10" as="offset" />
          </mxGeometry>
        </mxCell>
        <mxCell id="03JShoHPY47ac9KwAqlW-7" value="Validar lista&lt;br&gt;&amp;nbsp;de produtos" style="rhombus;whiteSpace=wrap;html=1;" parent="WIyWlLk6GJQsqaUBKTNV-1" vertex="1">
          <mxGeometry x="250.5" y="401" width="99" height="99" as="geometry" />
        </mxCell>
        <mxCell id="03JShoHPY47ac9KwAqlW-21" value="Fim" style="ellipse;whiteSpace=wrap;html=1;" parent="WIyWlLk6GJQsqaUBKTNV-1" vertex="1">
          <mxGeometry x="90" y="790" width="120" height="80" as="geometry" />
        </mxCell>
        <mxCell id="EHlQKIp9Hyzh21xTAEDl-1" style="edgeStyle=orthogonalEdgeStyle;rounded=0;orthogonalLoop=1;jettySize=auto;html=1;exitX=0.5;exitY=1;exitDx=0;exitDy=0;" edge="1" parent="WIyWlLk6GJQsqaUBKTNV-1" source="03JShoHPY47ac9KwAqlW-23" target="EHlQKIp9Hyzh21xTAEDl-0">
          <mxGeometry relative="1" as="geometry" />
        </mxCell>
        <mxCell id="03JShoHPY47ac9KwAqlW-23" value="Inicio" style="ellipse;whiteSpace=wrap;html=1;" parent="WIyWlLk6GJQsqaUBKTNV-1" vertex="1">
          <mxGeometry x="820" y="60" width="120" height="80" as="geometry" />
        </mxCell>
        <mxCell id="03JShoHPY47ac9KwAqlW-30" style="edgeStyle=orthogonalEdgeStyle;rounded=0;orthogonalLoop=1;jettySize=auto;html=1;exitX=0.5;exitY=1;exitDx=0;exitDy=0;entryX=0.5;entryY=0;entryDx=0;entryDy=0;" parent="WIyWlLk6GJQsqaUBKTNV-1" source="03JShoHPY47ac9KwAqlW-24" target="03JShoHPY47ac9KwAqlW-27" edge="1">
          <mxGeometry relative="1" as="geometry" />
        </mxCell>
        <mxCell id="03JShoHPY47ac9KwAqlW-24" value="Criar período sazonal" style="rounded=0;whiteSpace=wrap;html=1;" parent="WIyWlLk6GJQsqaUBKTNV-1" vertex="1">
          <mxGeometry x="820" y="290" width="120" height="60" as="geometry" />
        </mxCell>
        <mxCell id="03JShoHPY47ac9KwAqlW-31" style="edgeStyle=orthogonalEdgeStyle;rounded=0;orthogonalLoop=1;jettySize=auto;html=1;exitX=0;exitY=0.5;exitDx=0;exitDy=0;entryX=0.5;entryY=0;entryDx=0;entryDy=0;" parent="WIyWlLk6GJQsqaUBKTNV-1" source="03JShoHPY47ac9KwAqlW-27" target="03JShoHPY47ac9KwAqlW-28" edge="1">
          <mxGeometry relative="1" as="geometry" />
        </mxCell>
        <mxCell id="03JShoHPY47ac9KwAqlW-32" style="edgeStyle=orthogonalEdgeStyle;rounded=0;orthogonalLoop=1;jettySize=auto;html=1;exitX=1;exitY=0.5;exitDx=0;exitDy=0;entryX=0.5;entryY=0;entryDx=0;entryDy=0;" parent="WIyWlLk6GJQsqaUBKTNV-1" source="03JShoHPY47ac9KwAqlW-27" target="03JShoHPY47ac9KwAqlW-29" edge="1">
          <mxGeometry relative="1" as="geometry" />
        </mxCell>
        <mxCell id="03JShoHPY47ac9KwAqlW-27" value="Definir&lt;div&gt;período&lt;/div&gt;&lt;div&gt;sazonal&lt;/div&gt;" style="rhombus;whiteSpace=wrap;html=1;" parent="WIyWlLk6GJQsqaUBKTNV-1" vertex="1">
          <mxGeometry x="830" y="400" width="100" height="95" as="geometry" />
        </mxCell>
        <mxCell id="03JShoHPY47ac9KwAqlW-34" style="edgeStyle=orthogonalEdgeStyle;rounded=0;orthogonalLoop=1;jettySize=auto;html=1;exitX=0.5;exitY=1;exitDx=0;exitDy=0;entryX=0;entryY=0.5;entryDx=0;entryDy=0;" parent="WIyWlLk6GJQsqaUBKTNV-1" source="03JShoHPY47ac9KwAqlW-28" target="03JShoHPY47ac9KwAqlW-33" edge="1">
          <mxGeometry relative="1" as="geometry" />
        </mxCell>
        <mxCell id="03JShoHPY47ac9KwAqlW-28" value="Trimestral" style="rounded=0;whiteSpace=wrap;html=1;" parent="WIyWlLk6GJQsqaUBKTNV-1" vertex="1">
          <mxGeometry x="720" y="530" width="120" height="60" as="geometry" />
        </mxCell>
        <mxCell id="03JShoHPY47ac9KwAqlW-35" style="edgeStyle=orthogonalEdgeStyle;rounded=0;orthogonalLoop=1;jettySize=auto;html=1;exitX=0.5;exitY=1;exitDx=0;exitDy=0;entryX=1;entryY=0.5;entryDx=0;entryDy=0;" parent="WIyWlLk6GJQsqaUBKTNV-1" source="03JShoHPY47ac9KwAqlW-29" target="03JShoHPY47ac9KwAqlW-33" edge="1">
          <mxGeometry relative="1" as="geometry" />
        </mxCell>
        <mxCell id="03JShoHPY47ac9KwAqlW-29" value="Semestral" style="rounded=0;whiteSpace=wrap;html=1;" parent="WIyWlLk6GJQsqaUBKTNV-1" vertex="1">
          <mxGeometry x="920" y="530" width="120" height="60" as="geometry" />
        </mxCell>
        <mxCell id="03JShoHPY47ac9KwAqlW-37" style="edgeStyle=orthogonalEdgeStyle;rounded=0;orthogonalLoop=1;jettySize=auto;html=1;exitX=0.5;exitY=1;exitDx=0;exitDy=0;" parent="WIyWlLk6GJQsqaUBKTNV-1" source="03JShoHPY47ac9KwAqlW-33" target="03JShoHPY47ac9KwAqlW-36" edge="1">
          <mxGeometry relative="1" as="geometry" />
        </mxCell>
        <mxCell id="03JShoHPY47ac9KwAqlW-33" value="Entregas" style="rounded=0;whiteSpace=wrap;html=1;" parent="WIyWlLk6GJQsqaUBKTNV-1" vertex="1">
          <mxGeometry x="820" y="640" width="120" height="60" as="geometry" />
        </mxCell>
        <mxCell id="03JShoHPY47ac9KwAqlW-41" style="edgeStyle=orthogonalEdgeStyle;rounded=0;orthogonalLoop=1;jettySize=auto;html=1;exitX=0.5;exitY=1;exitDx=0;exitDy=0;entryX=0.5;entryY=0;entryDx=0;entryDy=0;" parent="WIyWlLk6GJQsqaUBKTNV-1" source="03JShoHPY47ac9KwAqlW-36" target="03JShoHPY47ac9KwAqlW-39" edge="1">
          <mxGeometry relative="1" as="geometry" />
        </mxCell>
        <mxCell id="03JShoHPY47ac9KwAqlW-42" style="edgeStyle=orthogonalEdgeStyle;rounded=0;orthogonalLoop=1;jettySize=auto;html=1;exitX=1;exitY=0.5;exitDx=0;exitDy=0;entryX=0.5;entryY=0;entryDx=0;entryDy=0;" parent="WIyWlLk6GJQsqaUBKTNV-1" source="03JShoHPY47ac9KwAqlW-36" target="03JShoHPY47ac9KwAqlW-40" edge="1">
          <mxGeometry relative="1" as="geometry" />
        </mxCell>
        <mxCell id="03JShoHPY47ac9KwAqlW-43" style="edgeStyle=orthogonalEdgeStyle;rounded=0;orthogonalLoop=1;jettySize=auto;html=1;exitX=0;exitY=0.5;exitDx=0;exitDy=0;entryX=0.5;entryY=0;entryDx=0;entryDy=0;" parent="WIyWlLk6GJQsqaUBKTNV-1" source="03JShoHPY47ac9KwAqlW-36" target="03JShoHPY47ac9KwAqlW-38" edge="1">
          <mxGeometry relative="1" as="geometry" />
        </mxCell>
        <mxCell id="03JShoHPY47ac9KwAqlW-36" value="Definir&lt;div&gt;frequência de entregas&lt;/div&gt;" style="rhombus;whiteSpace=wrap;html=1;" parent="WIyWlLk6GJQsqaUBKTNV-1" vertex="1">
          <mxGeometry x="830" y="760" width="100" height="100" as="geometry" />
        </mxCell>
        <mxCell id="03JShoHPY47ac9KwAqlW-46" style="edgeStyle=orthogonalEdgeStyle;rounded=0;orthogonalLoop=1;jettySize=auto;html=1;exitX=0.5;exitY=1;exitDx=0;exitDy=0;entryX=0;entryY=0.5;entryDx=0;entryDy=0;" parent="WIyWlLk6GJQsqaUBKTNV-1" source="03JShoHPY47ac9KwAqlW-38" target="03JShoHPY47ac9KwAqlW-44" edge="1">
          <mxGeometry relative="1" as="geometry" />
        </mxCell>
        <mxCell id="03JShoHPY47ac9KwAqlW-38" value="Semanal" style="rounded=0;whiteSpace=wrap;html=1;" parent="WIyWlLk6GJQsqaUBKTNV-1" vertex="1">
          <mxGeometry x="660" y="910" width="120" height="60" as="geometry" />
        </mxCell>
        <mxCell id="03JShoHPY47ac9KwAqlW-45" style="edgeStyle=orthogonalEdgeStyle;rounded=0;orthogonalLoop=1;jettySize=auto;html=1;exitX=0.5;exitY=1;exitDx=0;exitDy=0;entryX=0.5;entryY=0;entryDx=0;entryDy=0;" parent="WIyWlLk6GJQsqaUBKTNV-1" source="03JShoHPY47ac9KwAqlW-39" target="03JShoHPY47ac9KwAqlW-44" edge="1">
          <mxGeometry relative="1" as="geometry" />
        </mxCell>
        <mxCell id="03JShoHPY47ac9KwAqlW-39" value="Quinzenal" style="rounded=0;whiteSpace=wrap;html=1;" parent="WIyWlLk6GJQsqaUBKTNV-1" vertex="1">
          <mxGeometry x="820" y="910" width="120" height="60" as="geometry" />
        </mxCell>
        <mxCell id="03JShoHPY47ac9KwAqlW-47" style="edgeStyle=orthogonalEdgeStyle;rounded=0;orthogonalLoop=1;jettySize=auto;html=1;exitX=0.5;exitY=1;exitDx=0;exitDy=0;entryX=1;entryY=0.5;entryDx=0;entryDy=0;" parent="WIyWlLk6GJQsqaUBKTNV-1" source="03JShoHPY47ac9KwAqlW-40" target="03JShoHPY47ac9KwAqlW-44" edge="1">
          <mxGeometry relative="1" as="geometry" />
        </mxCell>
        <mxCell id="03JShoHPY47ac9KwAqlW-40" value="Mensal" style="rounded=0;whiteSpace=wrap;html=1;" parent="WIyWlLk6GJQsqaUBKTNV-1" vertex="1">
          <mxGeometry x="980" y="910" width="120" height="60" as="geometry" />
        </mxCell>
        <mxCell id="EHlQKIp9Hyzh21xTAEDl-4" style="edgeStyle=orthogonalEdgeStyle;rounded=0;orthogonalLoop=1;jettySize=auto;html=1;exitX=0.5;exitY=1;exitDx=0;exitDy=0;entryX=0.5;entryY=0;entryDx=0;entryDy=0;" edge="1" parent="WIyWlLk6GJQsqaUBKTNV-1" source="03JShoHPY47ac9KwAqlW-44" target="EHlQKIp9Hyzh21xTAEDl-3">
          <mxGeometry relative="1" as="geometry" />
        </mxCell>
        <mxCell id="03JShoHPY47ac9KwAqlW-44" value="Definir local e hora" style="rounded=0;whiteSpace=wrap;html=1;" parent="WIyWlLk6GJQsqaUBKTNV-1" vertex="1">
          <mxGeometry x="820" y="1030" width="120" height="60" as="geometry" />
        </mxCell>
        <mxCell id="03JShoHPY47ac9KwAqlW-49" value="Fim" style="ellipse;whiteSpace=wrap;html=1;" parent="WIyWlLk6GJQsqaUBKTNV-1" vertex="1">
          <mxGeometry x="820" y="1260" width="120" height="80" as="geometry" />
        </mxCell>
        <mxCell id="03JShoHPY47ac9KwAqlW-52" style="edgeStyle=orthogonalEdgeStyle;rounded=0;orthogonalLoop=1;jettySize=auto;html=1;exitX=0.5;exitY=1;exitDx=0;exitDy=0;entryX=0.5;entryY=0;entryDx=0;entryDy=0;" parent="WIyWlLk6GJQsqaUBKTNV-1" source="03JShoHPY47ac9KwAqlW-50" target="03JShoHPY47ac9KwAqlW-51" edge="1">
          <mxGeometry relative="1" as="geometry" />
        </mxCell>
        <mxCell id="03JShoHPY47ac9KwAqlW-50" value="Inicio" style="ellipse;whiteSpace=wrap;html=1;" parent="WIyWlLk6GJQsqaUBKTNV-1" vertex="1">
          <mxGeometry x="1640" y="60" width="120" height="80" as="geometry" />
        </mxCell>
        <mxCell id="03JShoHPY47ac9KwAqlW-61" style="edgeStyle=orthogonalEdgeStyle;rounded=0;orthogonalLoop=1;jettySize=auto;html=1;exitX=0.5;exitY=1;exitDx=0;exitDy=0;entryX=0.5;entryY=0;entryDx=0;entryDy=0;" parent="WIyWlLk6GJQsqaUBKTNV-1" source="03JShoHPY47ac9KwAqlW-51" target="03JShoHPY47ac9KwAqlW-54" edge="1">
          <mxGeometry relative="1" as="geometry" />
        </mxCell>
        <mxCell id="03JShoHPY47ac9KwAqlW-51" value="Entregas" style="rounded=0;whiteSpace=wrap;html=1;" parent="WIyWlLk6GJQsqaUBKTNV-1" vertex="1">
          <mxGeometry x="1640" y="190" width="120" height="60" as="geometry" />
        </mxCell>
        <mxCell id="03JShoHPY47ac9KwAqlW-58" style="edgeStyle=orthogonalEdgeStyle;rounded=0;orthogonalLoop=1;jettySize=auto;html=1;exitX=1;exitY=0.5;exitDx=0;exitDy=0;entryX=0.5;entryY=0;entryDx=0;entryDy=0;" parent="WIyWlLk6GJQsqaUBKTNV-1" source="03JShoHPY47ac9KwAqlW-54" target="03JShoHPY47ac9KwAqlW-56" edge="1">
          <mxGeometry relative="1" as="geometry" />
        </mxCell>
        <mxCell id="03JShoHPY47ac9KwAqlW-59" style="edgeStyle=orthogonalEdgeStyle;rounded=0;orthogonalLoop=1;jettySize=auto;html=1;exitX=0;exitY=0.5;exitDx=0;exitDy=0;entryX=0.5;entryY=0;entryDx=0;entryDy=0;" parent="WIyWlLk6GJQsqaUBKTNV-1" source="03JShoHPY47ac9KwAqlW-54" target="03JShoHPY47ac9KwAqlW-55" edge="1">
          <mxGeometry relative="1" as="geometry" />
        </mxCell>
        <mxCell id="03JShoHPY47ac9KwAqlW-54" value="Escolher&lt;div&gt;entregas&lt;/div&gt;" style="rhombus;whiteSpace=wrap;html=1;" parent="WIyWlLk6GJQsqaUBKTNV-1" vertex="1">
          <mxGeometry x="1660" y="300" width="80" height="80" as="geometry" />
        </mxCell>
        <mxCell id="03JShoHPY47ac9KwAqlW-66" style="edgeStyle=orthogonalEdgeStyle;rounded=0;orthogonalLoop=1;jettySize=auto;html=1;exitX=0.5;exitY=1;exitDx=0;exitDy=0;" parent="WIyWlLk6GJQsqaUBKTNV-1" source="03JShoHPY47ac9KwAqlW-55" target="03JShoHPY47ac9KwAqlW-62" edge="1">
          <mxGeometry relative="1" as="geometry" />
        </mxCell>
        <mxCell id="03JShoHPY47ac9KwAqlW-55" value="Próxima&lt;div&gt;Entrega&lt;/div&gt;" style="rounded=0;whiteSpace=wrap;html=1;" parent="WIyWlLk6GJQsqaUBKTNV-1" vertex="1">
          <mxGeometry x="1410" y="430" width="120" height="60" as="geometry" />
        </mxCell>
        <mxCell id="03JShoHPY47ac9KwAqlW-76" style="edgeStyle=orthogonalEdgeStyle;rounded=0;orthogonalLoop=1;jettySize=auto;html=1;exitX=0.5;exitY=1;exitDx=0;exitDy=0;entryX=0.5;entryY=0;entryDx=0;entryDy=0;" parent="WIyWlLk6GJQsqaUBKTNV-1" source="03JShoHPY47ac9KwAqlW-56" target="03JShoHPY47ac9KwAqlW-71" edge="1">
          <mxGeometry relative="1" as="geometry" />
        </mxCell>
        <mxCell id="03JShoHPY47ac9KwAqlW-56" value="Entregas&lt;div&gt;período sazonal&lt;/div&gt;" style="rounded=0;whiteSpace=wrap;html=1;" parent="WIyWlLk6GJQsqaUBKTNV-1" vertex="1">
          <mxGeometry x="1890" y="430" width="120" height="60" as="geometry" />
        </mxCell>
        <mxCell id="03JShoHPY47ac9KwAqlW-67" style="edgeStyle=orthogonalEdgeStyle;rounded=0;orthogonalLoop=1;jettySize=auto;html=1;exitX=0.5;exitY=1;exitDx=0;exitDy=0;entryX=0.5;entryY=0;entryDx=0;entryDy=0;" parent="WIyWlLk6GJQsqaUBKTNV-1" source="03JShoHPY47ac9KwAqlW-62" target="03JShoHPY47ac9KwAqlW-64" edge="1">
          <mxGeometry relative="1" as="geometry" />
        </mxCell>
        <mxCell id="03JShoHPY47ac9KwAqlW-68" style="edgeStyle=orthogonalEdgeStyle;rounded=0;orthogonalLoop=1;jettySize=auto;html=1;exitX=1;exitY=0.5;exitDx=0;exitDy=0;entryX=0.5;entryY=0;entryDx=0;entryDy=0;" parent="WIyWlLk6GJQsqaUBKTNV-1" source="03JShoHPY47ac9KwAqlW-62" target="03JShoHPY47ac9KwAqlW-65" edge="1">
          <mxGeometry relative="1" as="geometry" />
        </mxCell>
        <mxCell id="03JShoHPY47ac9KwAqlW-69" style="edgeStyle=orthogonalEdgeStyle;rounded=0;orthogonalLoop=1;jettySize=auto;html=1;exitX=0;exitY=0.5;exitDx=0;exitDy=0;entryX=0.5;entryY=0;entryDx=0;entryDy=0;" parent="WIyWlLk6GJQsqaUBKTNV-1" source="03JShoHPY47ac9KwAqlW-62" target="03JShoHPY47ac9KwAqlW-63" edge="1">
          <mxGeometry relative="1" as="geometry" />
        </mxCell>
        <mxCell id="03JShoHPY47ac9KwAqlW-62" value="Escolher informação entrega" style="rhombus;whiteSpace=wrap;html=1;" parent="WIyWlLk6GJQsqaUBKTNV-1" vertex="1">
          <mxGeometry x="1420" y="550" width="100" height="100" as="geometry" />
        </mxCell>
        <mxCell id="03JShoHPY47ac9KwAqlW-63" value="Produtores e produtos a entregar" style="rounded=0;whiteSpace=wrap;html=1;" parent="WIyWlLk6GJQsqaUBKTNV-1" vertex="1">
          <mxGeometry x="1250" y="700" width="120" height="60" as="geometry" />
        </mxCell>
        <mxCell id="03JShoHPY47ac9KwAqlW-64" value="Co-Produtores e produtos a receber" style="rounded=0;whiteSpace=wrap;html=1;" parent="WIyWlLk6GJQsqaUBKTNV-1" vertex="1">
          <mxGeometry x="1410" y="700" width="120" height="60" as="geometry" />
        </mxCell>
        <mxCell id="03JShoHPY47ac9KwAqlW-65" value="Pagamentos" style="rounded=0;whiteSpace=wrap;html=1;" parent="WIyWlLk6GJQsqaUBKTNV-1" vertex="1">
          <mxGeometry x="1570" y="700" width="120" height="60" as="geometry" />
        </mxCell>
        <mxCell id="03JShoHPY47ac9KwAqlW-74" style="edgeStyle=orthogonalEdgeStyle;rounded=0;orthogonalLoop=1;jettySize=auto;html=1;exitX=0;exitY=0.5;exitDx=0;exitDy=0;" parent="WIyWlLk6GJQsqaUBKTNV-1" source="03JShoHPY47ac9KwAqlW-71" target="03JShoHPY47ac9KwAqlW-72" edge="1">
          <mxGeometry relative="1" as="geometry" />
        </mxCell>
        <mxCell id="03JShoHPY47ac9KwAqlW-75" style="edgeStyle=orthogonalEdgeStyle;rounded=0;orthogonalLoop=1;jettySize=auto;html=1;exitX=1;exitY=0.5;exitDx=0;exitDy=0;entryX=0.5;entryY=0;entryDx=0;entryDy=0;" parent="WIyWlLk6GJQsqaUBKTNV-1" source="03JShoHPY47ac9KwAqlW-71" target="03JShoHPY47ac9KwAqlW-73" edge="1">
          <mxGeometry relative="1" as="geometry" />
        </mxCell>
        <mxCell id="03JShoHPY47ac9KwAqlW-71" value="Escolher resumo de entregas" style="rhombus;whiteSpace=wrap;html=1;" parent="WIyWlLk6GJQsqaUBKTNV-1" vertex="1">
          <mxGeometry x="1905" y="550" width="90" height="90" as="geometry" />
        </mxCell>
        <mxCell id="03JShoHPY47ac9KwAqlW-72" value="Resumo das entregas sazonais" style="rounded=0;whiteSpace=wrap;html=1;" parent="WIyWlLk6GJQsqaUBKTNV-1" vertex="1">
          <mxGeometry x="1790" y="700" width="110" height="60" as="geometry" />
        </mxCell>
        <mxCell id="03JShoHPY47ac9KwAqlW-73" value="Resumo dos pagamentos" style="rounded=0;whiteSpace=wrap;html=1;" parent="WIyWlLk6GJQsqaUBKTNV-1" vertex="1">
          <mxGeometry x="1990" y="700" width="110" height="60" as="geometry" />
        </mxCell>
        <mxCell id="03JShoHPY47ac9KwAqlW-78" value="Fim" style="ellipse;whiteSpace=wrap;html=1;" parent="WIyWlLk6GJQsqaUBKTNV-1" vertex="1">
          <mxGeometry x="1670" y="890" width="75" height="50" as="geometry" />
        </mxCell>
        <mxCell id="EHlQKIp9Hyzh21xTAEDl-2" style="edgeStyle=orthogonalEdgeStyle;rounded=0;orthogonalLoop=1;jettySize=auto;html=1;exitX=0.5;exitY=1;exitDx=0;exitDy=0;entryX=0.5;entryY=0;entryDx=0;entryDy=0;" edge="1" parent="WIyWlLk6GJQsqaUBKTNV-1" source="EHlQKIp9Hyzh21xTAEDl-0" target="03JShoHPY47ac9KwAqlW-24">
          <mxGeometry relative="1" as="geometry" />
        </mxCell>
        <mxCell id="EHlQKIp9Hyzh21xTAEDl-0" value="Gerir períodos sazonais AMAP" style="rounded=0;whiteSpace=wrap;html=1;" vertex="1" parent="WIyWlLk6GJQsqaUBKTNV-1">
          <mxGeometry x="820" y="180" width="120" height="60" as="geometry" />
        </mxCell>
        <mxCell id="EHlQKIp9Hyzh21xTAEDl-5" style="edgeStyle=orthogonalEdgeStyle;rounded=0;orthogonalLoop=1;jettySize=auto;html=1;exitX=0.5;exitY=1;exitDx=0;exitDy=0;entryX=0.5;entryY=0;entryDx=0;entryDy=0;" edge="1" parent="WIyWlLk6GJQsqaUBKTNV-1" source="EHlQKIp9Hyzh21xTAEDl-3" target="03JShoHPY47ac9KwAqlW-49">
          <mxGeometry relative="1" as="geometry" />
        </mxCell>
        <mxCell id="EHlQKIp9Hyzh21xTAEDl-3" value="Notificar produtores" style="rounded=0;whiteSpace=wrap;html=1;" vertex="1" parent="WIyWlLk6GJQsqaUBKTNV-1">
          <mxGeometry x="820" y="1150" width="120" height="60" as="geometry" />
        </mxCell>
        <mxCell id="EHlQKIp9Hyzh21xTAEDl-7" style="edgeStyle=orthogonalEdgeStyle;rounded=0;orthogonalLoop=1;jettySize=auto;html=1;exitX=0.5;exitY=0;exitDx=0;exitDy=0;entryX=0.529;entryY=1.003;entryDx=0;entryDy=0;entryPerimeter=0;" edge="1" parent="WIyWlLk6GJQsqaUBKTNV-1" source="03JShoHPY47ac9KwAqlW-78" target="EHlQKIp9Hyzh21xTAEDl-6">
          <mxGeometry relative="1" as="geometry" />
        </mxCell>
        <mxCell id="EHlQKIp9Hyzh21xTAEDl-10" style="edgeStyle=orthogonalEdgeStyle;rounded=0;orthogonalLoop=1;jettySize=auto;html=1;exitX=0.5;exitY=1;exitDx=0;exitDy=0;entryX=0.5;entryY=0;entryDx=0;entryDy=0;" edge="1" parent="WIyWlLk6GJQsqaUBKTNV-1" source="EHlQKIp9Hyzh21xTAEDl-8" target="03JShoHPY47ac9KwAqlW-6">
          <mxGeometry relative="1" as="geometry" />
        </mxCell>
        <mxCell id="EHlQKIp9Hyzh21xTAEDl-8" value="Gerir produtores&lt;div&gt;AMAP&lt;/div&gt;" style="rounded=0;whiteSpace=wrap;html=1;" vertex="1" parent="WIyWlLk6GJQsqaUBKTNV-1">
          <mxGeometry x="240" y="170" width="120" height="60" as="geometry" />
        </mxCell>
        <mxCell id="EHlQKIp9Hyzh21xTAEDl-14" style="edgeStyle=orthogonalEdgeStyle;rounded=0;orthogonalLoop=1;jettySize=auto;html=1;exitX=0.5;exitY=1;exitDx=0;exitDy=0;entryX=0.5;entryY=0;entryDx=0;entryDy=0;" edge="1" parent="WIyWlLk6GJQsqaUBKTNV-1" source="EHlQKIp9Hyzh21xTAEDl-11" target="EHlQKIp9Hyzh21xTAEDl-13">
          <mxGeometry relative="1" as="geometry" />
        </mxCell>
        <mxCell id="EHlQKIp9Hyzh21xTAEDl-11" value="Pedido&lt;div&gt;Produtor Aceite&lt;/div&gt;" style="rounded=0;whiteSpace=wrap;html=1;" vertex="1" parent="WIyWlLk6GJQsqaUBKTNV-1">
          <mxGeometry x="90" y="550" width="120" height="60" as="geometry" />
        </mxCell>
        <mxCell id="EHlQKIp9Hyzh21xTAEDl-12" value="Pedido Rejeitado" style="rounded=0;whiteSpace=wrap;html=1;" vertex="1" parent="WIyWlLk6GJQsqaUBKTNV-1">
          <mxGeometry x="400" y="550" width="120" height="60" as="geometry" />
        </mxCell>
        <mxCell id="EHlQKIp9Hyzh21xTAEDl-15" style="edgeStyle=orthogonalEdgeStyle;rounded=0;orthogonalLoop=1;jettySize=auto;html=1;exitX=0.5;exitY=1;exitDx=0;exitDy=0;entryX=0.5;entryY=0;entryDx=0;entryDy=0;" edge="1" parent="WIyWlLk6GJQsqaUBKTNV-1" source="EHlQKIp9Hyzh21xTAEDl-13" target="03JShoHPY47ac9KwAqlW-21">
          <mxGeometry relative="1" as="geometry" />
        </mxCell>
        <mxCell id="EHlQKIp9Hyzh21xTAEDl-13" value="Definir categorias(s)&lt;div&gt;de produto(s) a autorizados na AMAP&lt;/div&gt;" style="rounded=0;whiteSpace=wrap;html=1;" vertex="1" parent="WIyWlLk6GJQsqaUBKTNV-1">
          <mxGeometry x="80" y="675" width="140" height="60" as="geometry" />
        </mxCell>
      </root>
    </mxGraphModel>
  </diagram>
</mxfile>
